<?xml version="1.0" encoding="UTF-8" standalone="no"?>
<svg
   xmlns:dc="http://purl.org/dc/elements/1.1/"
   xmlns:cc="http://creativecommons.org/ns#"
   xmlns:rdf="http://www.w3.org/1999/02/22-rdf-syntax-ns#"
   xmlns:svg="http://www.w3.org/2000/svg"
   xmlns="http://www.w3.org/2000/svg"
   xmlns:sodipodi="http://sodipodi.sourceforge.net/DTD/sodipodi-0.dtd"
   xmlns:inkscape="http://www.inkscape.org/namespaces/inkscape"
   width="189mm"
   height="235mm"
   viewBox="0 0 170.09999 211.5"
   version="1.1"
   id="svg8"
   inkscape:version="1.0 (4035a4fb49, 2020-05-01)"
   sodipodi:docname="Logo.svg">
  <defs
     id="defs2">
    <rect
       x="-39.309525"
       y="834.57141"
       width="63.5"
       height="69.547623"
       id="rect926" />
    <style
       type="text/css"
       id="style4444">.fil3 {fill:#286786}
    .fil1 {fill:#2FAED6}
    .fil4 {fill:#38C5FB}
    .fil0 {fill:#6296AB}
    .fil2 {fill:#6FB2D1}</style>
  </defs>
  <sodipodi:namedview
     scale-x="0.9"
     units="in"
     inkscape:snap-page="true"
     inkscape:bbox-paths="true"
     inkscape:snap-bbox-midpoints="true"
     inkscape:snap-bbox-edge-midpoints="true"
     inkscape:snap-others="true"
     inkscape:showpageshadow="false"
     inkscape:pagecheckerboard="false"
     id="base"
     pagecolor="#ffffff"
     bordercolor="#666666"
     borderopacity="1.0"
     inkscape:pageopacity="0"
     inkscape:pageshadow="2"
     inkscape:zoom="0.90509668"
     inkscape:cx="291.17226"
     inkscape:cy="773.14481"
     inkscape:document-units="mm"
     inkscape:current-layer="layer1"
     inkscape:document-rotation="0"
     showgrid="false"
     showborder="true"
     inkscape:snap-bbox="false"
     inkscape:bbox-nodes="true"
     inkscape:snap-smooth-nodes="true"
     inkscape:snap-midpoints="true"
     showguides="true"
     inkscape:guide-bbox="true"
     inkscape:snap-intersection-paths="true"
     inkscape:object-paths="true"
     inkscape:snap-object-midpoints="true"
     inkscape:snap-center="true"
     inkscape:snap-global="true"
     inkscape:snap-nodes="true"
     inkscape:window-width="1600"
     inkscape:window-height="837"
     inkscape:window-x="-8"
     inkscape:window-y="-8"
     inkscape:window-maximized="1">
    <sodipodi:guide
       id="guide861"
       orientation="1,0"
       position="85.049995,-1.8554608e-06" />
  </sodipodi:namedview>
  <metadata
     id="metadata5">
    <rdf:RDF>
      <cc:Work
         rdf:about="">
        <dc:format>image/svg+xml</dc:format>
        <dc:type
           rdf:resource="http://purl.org/dc/dcmitype/StillImage" />
        <dc:title></dc:title>
      </cc:Work>
    </rdf:RDF>
  </metadata>
  <g
     inkscape:label="Layer 1"
     inkscape:groupmode="layer"
     id="layer1">
    <text
       xml:space="preserve"
       id="text924"
       style="font-style:normal;font-weight:normal;font-size:10.5833px;line-height:1.25;font-family:sans-serif;white-space:pre;shape-inside:url(#rect926);fill:#000000;fill-opacity:1;stroke:none;" />
    <circle
       style="fill:#1a1a1a;fill-opacity:1;stroke-width:0.173355"
       id="path922"
       cx="85.049988"
       cy="85.757332"
       r="84.755341" />
    <path
       inkscape:transform-center-x="3.6429851e-06"
       sodipodi:type="star"
       style="fill:#ffffff;fill-opacity:1;stroke-width:0.264583"
       id="path839"
       sodipodi:sides="5"
       sodipodi:cx="-1058.3333"
       sodipodi:cy="-81.64286"
       sodipodi:r1="166.41943"
       sodipodi:r2="63.239384"
       sodipodi:arg1="1.0471976"
       sodipodi:arg2="1.6755161"
       inkscape:flatsided="false"
       inkscape:rounded="0"
       inkscape:randomized="0"
       d="m -975.12354,62.480601 -89.82006,-81.23051 -104.746,60.780784 49.4989,-110.525529 -90.1743,-80.837096 120.4121,12.92198 49.0152,-110.74086 24.9199,118.51175 120.46732,12.39548 -105.01072,60.322315 z"
       inkscape:transform-center-y="-62.688453"
       transform="matrix(0.05611355,-0.00620126,0.00589775,0.05900128,144.91834,22.26575)" />
    <path
       transform="matrix(0.04589831,-0.03390528,0.03334706,0.04666666,105.50654,0.6570558)"
       inkscape:transform-center-y="-52.410495"
       inkscape:transform-center-x="31.146698"
       d="m -975.12354,62.480601 -89.82006,-81.23051 -104.746,60.780784 49.4989,-110.525529 -90.1743,-80.837096 120.4121,12.92198 49.0152,-110.74086 24.9199,118.51175 120.46732,12.39548 -105.01072,60.322315 z"
       inkscape:randomized="0"
       inkscape:rounded="0"
       inkscape:flatsided="false"
       sodipodi:arg2="1.6755161"
       sodipodi:arg1="1.0471976"
       sodipodi:r2="63.239384"
       sodipodi:r1="166.41943"
       sodipodi:cy="-81.64286"
       sodipodi:cx="-1058.3333"
       sodipodi:sides="5"
       id="path843"
       style="fill:#ffffff;fill-opacity:1;stroke-width:0.264583"
       sodipodi:type="star" />
    <path
       sodipodi:type="star"
       style="fill:#ffffff;fill-opacity:1;stroke-width:0.264583"
       id="path845"
       sodipodi:sides="5"
       sodipodi:cx="-1058.3333"
       sodipodi:cy="-81.64286"
       sodipodi:r1="166.41943"
       sodipodi:r2="63.239384"
       sodipodi:arg1="1.0471976"
       sodipodi:arg2="1.6755161"
       inkscape:flatsided="false"
       inkscape:rounded="0"
       inkscape:randomized="0"
       d="m -975.12354,62.480601 -89.82006,-81.23051 -104.746,60.780784 49.4989,-110.525529 -90.1743,-80.837096 120.4121,12.92198 49.0152,-110.74086 24.9199,118.51175 120.46732,12.39548 -105.01072,60.322315 z"
       inkscape:transform-center-x="52.410465"
       inkscape:transform-center-y="-31.1467"
       transform="matrix(0.02346186,-0.05182855,0.05269618,0.02307558,61.155496,1.9477378)" />
    <path
       transform="matrix(-0.00620126,-0.05611355,0.05900126,-0.00589775,21.558366,25.889049)"
       inkscape:transform-center-y="3.3391619e-06"
       inkscape:transform-center-x="62.688445"
       d="m -975.12354,62.480601 -89.82006,-81.23051 -104.746,60.780784 49.4989,-110.525529 -90.1743,-80.837096 120.4121,12.92198 49.0152,-110.74086 24.9199,118.51175 120.46732,12.39548 -105.01072,60.322315 z"
       inkscape:randomized="0"
       inkscape:rounded="0"
       inkscape:flatsided="false"
       sodipodi:arg2="1.6755161"
       sodipodi:arg1="1.0471976"
       sodipodi:r2="63.239384"
       sodipodi:r1="166.41943"
       sodipodi:cy="-81.64286"
       sodipodi:cx="-1058.3333"
       sodipodi:sides="5"
       id="path847"
       style="fill:#ffffff;fill-opacity:1;stroke-width:0.264583"
       sodipodi:type="star" />
    <path
       sodipodi:type="star"
       style="fill:#ffffff;fill-opacity:1;stroke-width:0.264583"
       id="path849"
       sodipodi:sides="5"
       sodipodi:cx="-1058.3333"
       sodipodi:cy="-81.64286"
       sodipodi:r1="166.41943"
       sodipodi:r2="63.239384"
       sodipodi:arg1="1.0471976"
       sodipodi:arg2="1.6755161"
       inkscape:flatsided="false"
       inkscape:rounded="0"
       inkscape:randomized="0"
       d="m -975.12354,62.480601 -89.82006,-81.23051 -104.746,60.780784 49.4989,-110.525529 -90.1743,-80.837096 120.4121,12.92198 49.0152,-110.74086 24.9199,118.51175 120.46732,12.39548 -105.01072,60.322315 z"
       inkscape:transform-center-x="52.410494"
       inkscape:transform-center-y="31.146714"
       transform="matrix(-0.03390528,-0.04589832,0.04666665,-0.03334706,-0.05033403,65.300854)" />
    <path
       transform="matrix(-0.05182855,-0.02346186,0.02307558,-0.05269618,1.240346,109.65187)"
       inkscape:transform-center-y="52.410465"
       inkscape:transform-center-x="31.146699"
       d="m -975.12354,62.480601 -89.82006,-81.23051 -104.746,60.780784 49.4989,-110.525529 -90.1743,-80.837096 120.4121,12.92198 49.0152,-110.74086 24.9199,118.51175 120.46732,12.39548 -105.01072,60.322315 z"
       inkscape:randomized="0"
       inkscape:rounded="0"
       inkscape:flatsided="false"
       sodipodi:arg2="1.6755161"
       sodipodi:arg1="1.0471976"
       sodipodi:r2="63.239384"
       sodipodi:r1="166.41943"
       sodipodi:cy="-81.64286"
       sodipodi:cx="-1058.3333"
       sodipodi:sides="5"
       id="path851"
       style="fill:#ffffff;fill-opacity:1;stroke-width:0.264583"
       sodipodi:type="star" />
    <path
       sodipodi:type="star"
       style="fill:#ffffff;fill-opacity:1;stroke-width:0.264583"
       id="path853"
       sodipodi:sides="5"
       sodipodi:cx="-1058.3333"
       sodipodi:cy="-81.64286"
       sodipodi:r1="166.41943"
       sodipodi:r2="63.239384"
       sodipodi:arg1="1.0471976"
       sodipodi:arg2="1.6755161"
       inkscape:flatsided="false"
       inkscape:rounded="0"
       inkscape:randomized="0"
       d="m -975.12354,62.480601 -89.82006,-81.23051 -104.746,60.780784 49.4989,-110.525529 -90.1743,-80.837096 120.4121,12.92198 49.0152,-110.74086 24.9199,118.51175 120.46732,12.39548 -105.01072,60.322315 z"
       inkscape:transform-center-x="-1.2824658e-05"
       inkscape:transform-center-y="62.688442"
       transform="matrix(-0.05611355,0.00620126,-0.00589775,-0.05900128,25.181666,149.24901)" />
    <path
       transform="matrix(-0.04589831,0.03390528,-0.03334706,-0.04666666,64.593466,170.85771)"
       inkscape:transform-center-y="52.410489"
       inkscape:transform-center-x="-31.146711"
       d="m -975.12354,62.480601 -89.82006,-81.23051 -104.746,60.780784 49.4989,-110.525529 -90.1743,-80.837096 120.4121,12.92198 49.0152,-110.74086 24.9199,118.51175 120.46732,12.39548 -105.01072,60.322315 z"
       inkscape:randomized="0"
       inkscape:rounded="0"
       inkscape:flatsided="false"
       sodipodi:arg2="1.6755161"
       sodipodi:arg1="1.0471976"
       sodipodi:r2="63.239384"
       sodipodi:r1="166.41943"
       sodipodi:cy="-81.64286"
       sodipodi:cx="-1058.3333"
       sodipodi:sides="5"
       id="path855"
       style="fill:#ffffff;fill-opacity:1;stroke-width:0.264583"
       sodipodi:type="star" />
    <path
       sodipodi:type="star"
       style="fill:#ffffff;fill-opacity:1;stroke-width:0.264583"
       id="path857"
       sodipodi:sides="5"
       sodipodi:cx="-1058.3333"
       sodipodi:cy="-81.64286"
       sodipodi:r1="166.41943"
       sodipodi:r2="63.239384"
       sodipodi:arg1="1.0471976"
       sodipodi:arg2="1.6755161"
       inkscape:flatsided="false"
       inkscape:rounded="0"
       inkscape:randomized="0"
       d="m -975.12354,62.480601 -89.82006,-81.23051 -104.746,60.780784 49.4989,-110.525529 -90.1743,-80.837096 120.4121,12.92198 49.0152,-110.74086 24.9199,118.51175 120.46732,12.39548 -105.01072,60.322315 z"
       inkscape:transform-center-x="-52.410463"
       inkscape:transform-center-y="31.146694"
       transform="matrix(-0.02346186,0.05182855,-0.05269618,-0.02307558,108.9445,169.56703)" />
    <path
       inkscape:transform-center-y="2.6908295e-06"
       transform="matrix(0.00620126,0.05611355,-0.05900126,0.00589775,148.54162,145.62573)"
       inkscape:transform-center-x="-62.688437"
       d="m -975.12354,62.480601 -89.82006,-81.23051 -104.746,60.780784 49.4989,-110.525529 -90.1743,-80.837096 120.4121,12.92198 49.0152,-110.74086 24.9199,118.51175 120.46732,12.39548 -105.01072,60.322315 z"
       inkscape:randomized="0"
       inkscape:rounded="0"
       inkscape:flatsided="false"
       sodipodi:arg2="1.6755161"
       sodipodi:arg1="1.0471976"
       sodipodi:r2="63.239384"
       sodipodi:r1="166.41943"
       sodipodi:cy="-81.64286"
       sodipodi:cx="-1058.3333"
       sodipodi:sides="5"
       id="path859"
       style="fill:#ffffff;fill-opacity:1;stroke-width:0.264583"
       sodipodi:type="star" />
    <path
       sodipodi:type="star"
       style="fill:#ffffff;fill-opacity:1;stroke-width:0.264583"
       id="path861"
       sodipodi:sides="5"
       sodipodi:cx="-1058.3333"
       sodipodi:cy="-81.64286"
       sodipodi:r1="166.41943"
       sodipodi:r2="63.239384"
       sodipodi:arg1="1.0471976"
       sodipodi:arg2="1.6755161"
       inkscape:flatsided="false"
       inkscape:rounded="0"
       inkscape:randomized="0"
       d="m -975.12354,62.480601 -89.82006,-81.23051 -104.746,60.780784 49.4989,-110.525529 -90.1743,-80.837096 120.4121,12.92198 49.0152,-110.74086 24.9199,118.51175 120.46732,12.39548 -105.01072,60.322315 z"
       inkscape:transform-center-x="-52.410481"
       inkscape:transform-center-y="-31.146702"
       transform="matrix(0.03390528,0.04589832,-0.04666665,0.03334706,170.15032,106.21393)" />
    <path
       transform="matrix(0.05182855,0.02346186,-0.02307558,0.05269618,168.85964,61.862914)"
       inkscape:transform-center-y="-52.410451"
       inkscape:transform-center-x="-31.146691"
       d="m -975.12354,62.480601 -89.82006,-81.23051 -104.746,60.780784 49.4989,-110.525529 -90.1743,-80.837096 120.4121,12.92198 49.0152,-110.74086 24.9199,118.51175 120.46732,12.39548 -105.01072,60.322315 z"
       inkscape:randomized="0"
       inkscape:rounded="0"
       inkscape:flatsided="false"
       sodipodi:arg2="1.6755161"
       sodipodi:arg1="1.0471976"
       sodipodi:r2="63.239384"
       sodipodi:r1="166.41943"
       sodipodi:cy="-81.64286"
       sodipodi:cx="-1058.3333"
       sodipodi:sides="5"
       id="path863"
       style="fill:#ffffff;fill-opacity:1;stroke-width:0.264583"
       sodipodi:type="star" />
    <g
       id="g3949"
       transform="matrix(0.06212397,0,0,0.06212397,158.6665,51.097184)"
       style="fill:#ffffff">
      <path
         id="path3951"
         style="fill:#ffffff"
         d="m -1332.6,974.35 h 301.52 l 8.434,-229.83 56.93,-69.58 35.844,-175.01 -94.883,84.34 -69.58,-67.472 -128.62,-27.41 78.014,94.882 42.17,111.75 21.085,23.194 -33.736,16.868 2.1085,172.9 -27.41,-193.98 -44.278,-4.217 59.038,-37.953 -130.73,-200.31 -90.666,-35.844 23.194,-10.542 18.976,-29.519 -6.3255,-31.627 54.821,50.604 94.882,-23.194 10.542,-56.929 -196.09,-88.557 -141.27,208.74 187.66,269.89 -31.628,248.8 z" />
      <path
         id="path3953"
         sodipodi:nodetypes="ccccc"
         style="fill:#ffffff"
         d="m -1246.1,141.49 -78.014,103.32 103.32,44.278 59.038,-99.099 -84.34,-48.495 z" />
      <path
         id="path3955"
         sodipodi:nodetypes="ccccccc"
         style="fill:#ffffff"
         d="m -1149.1,196.31 -61.146,94.882 71.689,40.061 -10.542,52.712 37.953,-25.302 67.472,-96.991 -105.42,-65.363 z" />
      <path
         id="path3957"
         sodipodi:nodetypes="ccccc"
         style="fill:#ffffff"
         d="m -1050,286.98 92.774,63.255 -130.73,160.25 -84.34,-40.061 122.29,-183.44 z" />
      <path
         id="path3959"
         sodipodi:nodetypes="ccccc"
         style="fill:#ffffff"
         d="m -946.72,358.67 65.363,84.34 -143.38,128.62 -56.93,-50.604 134.94,-162.35 z" />
      <path
         id="path3961"
         style="fill:#ffffff"
         d="m -1166,413.49 -35.844,61.146 -59.038,-33.736 z" />
    </g>
    <text
       xml:space="preserve"
       style="font-size:80.5693px;line-height:1.25;font-family:sans-serif;white-space:pre;inline-size:407.139;fill:#000058;fill-opacity:1;stroke-width:0.944169"
       x="117.48215"
       y="809.56683"
       id="text932"
       transform="matrix(0.57894937,0,0,0.57894937,-52.445014,-258.78619)" />
    <g
       style="font-style:normal;font-variant:normal;font-weight:normal;font-stretch:normal;font-size:36.5081px;line-height:1.25;font-family:'Franklin Gothic Medium Cond';-inkscape-font-specification:'Franklin Gothic Medium Cond';fill:#000000;fill-opacity:1;stroke:none;stroke-width:0.9127"
       id="text931"
       aria-label="NATION">
      <path
         id="path933"
         style="font-style:normal;font-variant:normal;font-weight:normal;font-stretch:normal;font-family:'Franklin Gothic Medium Cond';-inkscape-font-specification:'Franklin Gothic Medium Cond';stroke-width:0.9127"
         d="m 36.491404,180.04718 h 4.741774 l 8.003973,17.541 v -17.541 h 3.369156 v 24.33279 h -3.761333 l -8.984415,-19.48405 v 19.48405 h -3.369155 z" />
      <path
         id="path935"
         style="font-style:normal;font-variant:normal;font-weight:normal;font-stretch:normal;font-family:'Franklin Gothic Medium Cond';-inkscape-font-specification:'Franklin Gothic Medium Cond';stroke-width:0.9127"
         d="m 62.152247,180.04718 h 4.510034 l 6.524396,24.33279 h -4.082204 l -1.533055,-6.09656 h -7.112662 l -1.497402,6.09656 H 55.11089 Z m 4.616991,15.06316 -2.763064,-11.14139 -2.745238,11.14139 z" />
      <path
         id="path937"
         style="font-style:normal;font-variant:normal;font-weight:normal;font-stretch:normal;font-family:'Franklin Gothic Medium Cond';-inkscape-font-specification:'Franklin Gothic Medium Cond';stroke-width:0.9127"
         d="m 71.81406,180.04718 h 14.849241 v 3.42264 h -5.436997 v 20.91015 H 77.197578 V 183.46982 H 71.81406 Z" />
      <path
         id="path939"
         style="font-style:normal;font-variant:normal;font-weight:normal;font-stretch:normal;font-family:'Franklin Gothic Medium Cond';-inkscape-font-specification:'Franklin Gothic Medium Cond';stroke-width:0.9127"
         d="m 88.383529,180.04718 h 4.028726 v 24.33279 h -4.028726 z" />
      <path
         id="path941"
         style="font-style:normal;font-variant:normal;font-weight:normal;font-stretch:normal;font-family:'Franklin Gothic Medium Cond';-inkscape-font-specification:'Franklin Gothic Medium Cond';stroke-width:0.9127"
         d="m 113.76807,192.20467 q 0,6.23917 -2.22828,9.43007 -2.22828,3.19089 -6.47092,3.19089 -4.26047,0 -6.524395,-3.17307 -2.26393,-3.19089 -2.26393,-9.44789 0,-6.20353 2.246104,-9.39442 2.246101,-3.20872 6.524401,-3.20872 4.22481,0 6.47091,3.19089 2.24611,3.17307 2.24611,9.41225 z m -4.22482,0 q 0,-4.33178 -1.01609,-6.80962 -0.99827,-2.49567 -3.51177,-2.49567 -2.51349,0 -3.51176,2.49567 -0.99827,2.49567 -0.99827,6.80962 0,4.24264 0.98044,6.77396 0.98044,2.53132 3.58307,2.53132 2.44219,0 3.45829,-2.44219 1.01609,-2.46002 1.01609,-6.86309 z" />
      <path
         id="path943"
         style="font-style:normal;font-variant:normal;font-weight:normal;font-stretch:normal;font-family:'Franklin Gothic Medium Cond';-inkscape-font-specification:'Franklin Gothic Medium Cond';stroke-width:0.9127"
         d="m 117.49375,180.04718 h 4.74177 l 8.00397,17.541 v -17.541 h 3.36916 v 24.33279 h -3.76133 l -8.98442,-19.48405 v 19.48405 h -3.36915 z" />
    </g>
  </g>
</svg>
